# AST/ASF file generated using VICON BodyLanguage
# -----------------------------------------------
:version 1.10
:name VICON
:units
  mass 1.0
  length 0.45
  angle deg
:documentation
   .ast/.asf automatically generated from VICON data using
   VICON BodyBuilder and BodyLanguage model FoxedUp or BRILLIANT.MOD
:root
   order TX TY TZ RX RY RZ
   axis XYZ
   position 0 0 0  
   orientation 0 0 0 
:bonedata
  begin
     id 1 
     name lhipjoint
     direction 0.630305 -0.712092 0.309259 
     length 2.29033 
     axis 0 0 0  XYZ
  end
  begin
     id 2 
     name lfemur
     direction 0.34202 -0.939693 0  
     length 6.43538  
     axis 0 0 20  XYZ
    dof rx ry rz
    limits (-160.0 20.0)
           (-70.0 70.0)
           (-60.0 70.0)
  end
  begin
     id 3 
     name ltibia
     direction 0.34202 -0.939693 0   
     length 7.43097   
     axis 0 0 20   XYZ
    dof rx
    limits (-10.0 170.0)
  end
  begin
     id 4 
     name lfoot
     direction 0.0334653 -0.0919451 0.995202   
     length 1.78438   
     axis -90 7.62852e-016 20   XYZ
    dof rx rz
    limits (-45.0 90.0)
           (-70.0 20.0)
  end
  begin
     id 5 
     name ltoes
     direction 1.53535e-011 -4.21933e-011 1   
     length 0.90832   
     axis -90 7.62852e-016 20   XYZ
    dof rx
    limits (-90.0 20.0)
  end
  begin
     id 6 
     name rhipjoint
     direction -0.682059 -0.67077 0.291312   
     length 2.43143  
     axis 0 0 0  XYZ 
  end
  begin
     id 7 
     name rfemur
     direction -0.34202 -0.939693 0   
     length 6.63488   
     axis 0 0 -20   XYZ
    dof rx ry rz
    limits (-160.0 20.0)
           (-70.0 70.0)
           (-70.0 60.0)
  end
  begin
     id 8 
     name rtibia
     direction -0.34202 -0.939693 0   
     length 6.86532   
     axis 0 0 -20   XYZ
    dof rx
    limits (-10.0 170.0)
 end
 begin
     id 9 
     name rfoot
     direction -0.105199 -0.289033 0.951521   
     length 1.77126  
     axis -90 -7.62852e-016 -20   XYZ
    dof rx rz
    limits (-45.0 90.0)
           (-20.0 70.0)
  end
  begin
     id 10 
     name rtoes
     direction -1.53551e-011 -4.21978e-011 1   
     length 0.889273   
     axis -90 -7.62852e-016 -20   XYZ
    dof rx
    limits (-90.0 20.0)
  end
  begin
     id 11 
     name lowerback
     direction -0.0514305 0.998089 0.034245   
     length 2.02077   
     axis 0 0 0   XYZ
    dof rx ry rz
    limits (-20.0 45.0)
           (-30.0 30.0)
           (-30.0 30.0)
  end
  begin
     id 12 
     name upperback
     direction 0.0203189 0.999449 -0.0262315   
     length 2.01413   
     axis 0 0 0   XYZ
    dof rx ry rz
    limits (-20.0 45.0)
           (-30.0 30.0)
           (-30.0 30.0)
  end
  begin
     id 13 
     name thorax
     direction 0.0452736 0.998142 -0.0407729   
     length 2.02986   
     axis 0 0 0   XYZ
    dof rx ry rz
    limits (-20.0 45.0)
           (-30.0 30.0)
           (-30.0 30.0)
  end
  begin
     id 14 
     name lowerneck
     direction -0.0180464 0.999645 -0.0195774   
     length 1.59034   
     axis 0 0 0   XYZ
    dof rx ry rz
    limits (-20.0 45.0)
           (-30.0 30.0)
           (-30.0 30.0)
  end
  begin
     id 15 
     name upperneck
     direction 0.0732272 0.979935 -0.18538   
     length 1.57486   
     axis 0 0 0   XYZ
    dof rx ry rz
    limits (-20.0 45.0)
           (-30.0 30.0)
           (-30.0 30.0)
  end
  begin
     id 16
     name head
     direction 0.0252963 0.997909 -0.059472  
     length 1.60334  
     axis 0 0 0   XYZ
    dof rx ry rz
    limits (-20.0 45.0)
           (-30.0 30.0)
           (-30.0 30.0)
  end
  begin
     id 17 
     name lclavicle
     direction 0.943819 0.330449 0.00315172  
     length 3.50322  
     axis 0 0 0   XYZ
    dof ry rz
    limits (-20.0 10.0)
           (0.0 20.0)
  end
  begin
     id 18 
     name lhumerus
     direction 1 -4.48949e-011 2.22502e-028   
     length 4.63208   
     axis 180 -30 -90   XYZ
    dof rx ry rz
    limits (-60.0 90.0)
           (-90.0 90.0)
           (-90.0 90.0)
  end
  begin
     id 19
     name lradius
     direction 1 -4.48967e-011 -4.10197e-027   
     length 3.41924   
     axis 180 -30 -90   XYZ
    dof rx
    limits (-10.0 170.0)
  end
  begin
     id 20
     name lwrist
     direction 1 -4.48987e-011 -1.24264e-027   
     length 1.70962   
     axis 2.50585e-015 90 90   XYZ
    dof ry
    limits (-180.0 0.0)
 end
  begin
     id 21 
     name lhand
     direction 1 -4.48983e-011 -2.48528e-027   
     length 0.62537   
     axis 1.58582e-015 90 90   XYZ
    dof rx rz
    limits (-90.0 90.0)
           (-45.0 45.0)
  end
  begin
     id 22 
     name lfingers
     direction 1 -4.48896e-011 -4.97056e-027   
     length 0.50419   
     axis 3.17164e-015 90 90   XYZ
    dof rx
    limits (0.0 90.0)
  end
  begin
     id 23
     name lthumb
     direction 0.707107 -6.34803e-011 0.707107   
     length 0.723919   
     axis -90 45 2.85299e-015   XYZ
    dof rx rz
    limits (-45.0 45.0)
           (-45.0 45.0)
  end
  begin
     id 24 
     name rclavicle
     direction -0.964499 0.260664 -0.0423695   
     length 3.91997  
     axis 0 0 0   XYZ 
    dof ry rz
    limits (-10.0 20.0)
           (-20.0 0.0)
  end
  begin
     id 25 
     name rhumerus
     direction -1 -4.48957e-011 -1.98656e-027  
     length 4.4064   
     axis 180 30 90   XYZ
    dof rx ry rz
    limits (-90.0 60.0)
           (-90.0 90.0)
           (-90.0 90.0)
  end
  begin
     id 26 
     name rradius
     direction -1 -4.48968e-011 1.96972e-027   
     length 3.44675   
     axis 180 30 90   XYZ
    dof rx
    limits (-10.0 170.0)
  end
  begin
     id 27 
     name rwrist
     direction -1 -4.48974e-011 -1.24264e-027   
     length 1.72338   
     axis 2.50585e-015 -90 -90   XYZ
    dof ry
    limits (-180.0 0.0)
  end
  begin
     id 28
     name rhand
     direction -1 -4.48901e-011 -2.48528e-027   
     length 0.513674   
     axis 1.58582e-015 -90 -90   XYZ
    dof rx rz
    limits (-90.0 90.0)
           (-45.0 45.0)
  end
  begin
     id 29
     name rfingers
     direction -1 -4.48946e-011 -4.97056e-027   
     length 0.414137   
     axis 3.17164e-015 -90 -90   XYZ
    dof rx
    limits (0.0 90.0)
  end
  begin
     id 30
     name rthumb
     direction -0.707107 -6.34859e-011 0.707107   
     length 0.59462   
     axis -90 -45 -2.85299e-015   XYZ
    dof rx rz
    limits (-45.0 45.0)
           (-45.0 45.0)
  end
:hierarchy
  begin
    root lhipjoint rhipjoint lowerback
    lhipjoint lfemur
    lfemur ltibia
    ltibia lfoot
    lfoot ltoes
    rhipjoint rfemur
    rfemur rtibia
    rtibia rfoot
    rfoot rtoes
    lowerback upperback
    upperback thorax
    thorax lowerneck lclavicle rclavicle
    lowerneck upperneck
    upperneck head
    lclavicle lhumerus
    lhumerus lradius
    lradius lwrist
    lwrist lhand lthumb
    lhand lfingers
    rclavicle rhumerus
    rhumerus rradius
    rradius rwrist
    rwrist rhand rthumb
    rhand rfingers
  end

#!OML:ASF E:\inclinewalkrobotboard\Project 1\Capture day 1\Session 1\subject1.ASF
:FULLY-SPECIFIED
:DEGREES
150
root 9.78061 16.6995 14.0984 -164.143 -1.81658 175.617
lowerback 4.24031 -2.33613 -9.71328
upperback 3.36581 -3.61839 2.10051
thorax 1.88116 -2.13585 7.73951
lowerneck -8.51095 -1.15621 -3.5498
upperneck 21.7669 -0.844832 4.25374
head 8.16544 0.114915 1.99342
rclavicle -2.78299e-015 1.09332e-014
rhumerus -51.9746 -12.1655 -61.9875
rradius 33.913
rwrist 10.631
rhand -18.3155 -34.2724
rfingers 7.12502
rthumb 7.96586 -64.1023
lclavicle -2.78299e-015 1.09332e-014
lhumerus -4.0537 -8.67716 74.7502
lradius 37.4707
lwrist -13.8889
lhand -36.7289 -22.8909
lfingers 7.12502
lthumb -9.81307 6.86045
rfemur -42.5138 0.821382 3.64543
rtibia 24.2798
rfoot -7.33899 -11.881
rtoes -17.5282
lfemur -14.4824 -7.56861 -19.7487
ltibia 32.8166
lfoot -28.4982 10.8883
ltoes -69.726
151
root 9.88303 16.6584 13.748 -164.494 -2.40062 175.359
lowerback 3.49141 -2.7967 -9.48415
upperback 3.33196 -4.14388 2.22444
thorax 2.36732 -2.41356 7.69358
lowerneck -8.86431 -1.09229 -3.58553
upperneck 22.827 -0.586033 3.94858
head 8.57904 0.245298 1.94546
rclavicle -3.69739e-014 -1.2921e-014
rhumerus -53.1392 -13.4745 -60.9172
rradius 32.9499
rwrist 10.6714
rhand -17.4969 -36.6951
rfingers 7.12502
rthumb 8.75587 -66.4935
lclavicle -3.69739e-014 -1.2921e-014
lhumerus -4.05379 -9.42461 76.0955
lradius 38.4264
lwrist -14.187
lhand -36.9295 -24.0501
lfingers 7.12502
lthumb -10.0066 5.69201
rfemur -41.5375 0.0642274 4.42341
rtibia 22.7873
rfoot -5.46237 -11.1976
rtoes -7.08336
lfemur -13.4196 -7.70902 -19.5503
ltibia 34.0124
lfoot -27.9522 10.0743
ltoes -70.1425
152
root 10.0012 16.6218 13.4154 -164.755 -2.72676 175.443
lowerback 2.92548 -3.09291 -9.04049
upperback 3.18787 -4.46753 2.41025
thorax 2.57858 -2.56471 7.60188
lowerneck -9.17063 -0.995067 -3.47325
upperneck 23.7857 -0.237837 3.37492
head 8.95263 0.397295 1.78902
rclavicle 9.14409e-015 1.43125e-014
rhumerus -54.3263 -14.8584 -59.7859
rradius 32.0355
rwrist 10.7508
rhand -18.6795 -34.9383
rfingers 7.12502
rthumb 7.61455 -64.7812
lclavicle 9.14409e-015 1.43125e-014
lhumerus -4.26749 -10.09 77.4359
lradius 39.0743
lwrist -14.5576
lhand -36.5247 -24.8617
lfingers 7.12502
lthumb -9.61613 4.89885
rfemur -40.8955 0.238699 5.47827
rtibia 22.7546
rfoot -3.40068 -11.3941
rtoes -17.4906
lfemur -13.0039 -7.53225 -18.758
ltibia 35.848
lfoot -26.9719 9.15122
ltoes -70.4905
153
root 10.1263 16.5927 13.1132 -164.986 -2.71531 175.679
lowerback 2.88391 -3.19663 -8.5159
upperback 2.84152 -4.58196 2.61271
thorax 2.23302 -2.57357 7.52763
lowerneck -9.39089 -0.867598 -3.29352
upperneck 24.6635 0.190508 2.65724
head 9.28773 0.574419 1.57817
rclavicle -2.40529e-014 3.97569e-015
rhumerus -55.6349 -16.196 -58.5105
rradius 31.198
rwrist 11.1083
rhand -16.3737 -36.3144
rfingers 7.12502
rthumb 9.83965 -66.0645
lclavicle -2.40529e-014 3.97569e-015
lhumerus -4.77886 -10.5712 78.9175
lradius 39.3689
lwrist -15.325
lhand -35.6222 -24.4301
lfingers 7.12502
lthumb -8.7452 5.36873
rfemur -41.6534 1.15306 6.34909
rtibia 26.5848
rfoot -5.219 -11.8064
rtoes -24.115
lfemur -13.1989 -7.29146 -17.7585
ltibia 38.3332
lfoot -25.591 8.29613
ltoes -70.9184
154
root 10.2438 16.5713 12.8225 -165.371 -2.45176 175.883
lowerback 3.17139 -3.17106 -7.96396
upperback 2.48991 -4.55161 2.75315
thorax 1.66203 -2.50338 7.39728
lowerneck -9.34049 -0.760502 -3.21493
upperneck 25.2993 0.571119 2.09106
head 9.49463 0.731199 1.42515
rclavicle -4.57205e-015 1.19271e-014
rhumerus -56.7191 -17.2131 -57.4237
rradius 30.3501
rwrist 11.5756
rhand -16.8809 -35.6583
rfingers 7.12502
rthumb 9.35024 -65.4309
lclavicle -4.57205e-015 1.19271e-014
lhumerus -5.63406 -11.1279 80.3706
lradius 39.4932
lwrist -16.1747
lhand -35.3043 -24.13
lfingers 7.12502
lthumb -8.43849 5.68137
rfemur -42.9264 3.77196 6.54901
rtibia 31.6577
rfoot -8.5987 -12.6768
rtoes -25.314
lfemur -13.4469 -7.35693 -17.0401
ltibia 41.1002
lfoot -23.9373 7.58628
ltoes -71.5401
155
root 10.3444 16.5586 12.5283 -165.989 -2.10506 176.149
lowerback 3.46423 -3.13331 -7.28326
upperback 2.35171 -4.50859 2.86968
thorax 1.29773 -2.4513 7.15963
lowerneck -9.48045 -0.568001 -2.83679
upperneck 26.0228 1.08962 1.30454
head 9.77352 0.953852 1.16141
rclavicle -1.59028e-015 8.74653e-015
rhumerus -57.0427 -18.0555 -56.6169
rradius 29.1425
rwrist 12.6816
rhand -16.9251 -35.8372
rfingers 7.12502
rthumb 9.3076 -65.6118
lclavicle -1.59028e-015 8.74653e-015
lhumerus -6.60527 -11.5822 81.6485
lradius 39.3283
lwrist -16.7994
lhand -35.4998 -25.5254
lfingers 7.12502
lthumb -8.62714 4.27832
rfemur -42.7663 5.15769 7.41507
rtibia 34.5239
rfoot -10.5925 -12.5144
rtoes -27.0942
lfemur -13.3682 -7.69867 -16.5706
ltibia 43.6625
lfoot -22.1326 6.87451
ltoes -71.8456
156
root 10.4248 16.5519 12.2323 -166.569 -1.86066 176.359
lowerback 3.45711 -3.19206 -6.58444
upperback 2.41513 -4.57867 2.95509
thorax 1.32801 -2.48416 6.8494
lowerneck -9.03918 -0.360056 -2.95286
upperneck 25.9015 1.443 1.1944
head 9.63853 1.10393 1.17653
rclavicle 2.92213e-014 4.77083e-015
rhumerus -56.6183 -18.9256 -55.99
rradius 27.7579
rwrist 14.8749
rhand -16.7297 -35.8038
rfingers 7.12502
rthumb 9.49614 -65.5698
lclavicle 2.92213e-014 4.77083e-015
lhumerus -7.43906 -11.8231 82.7594
lradius 38.7913
lwrist -17.063
lhand -35.6914 -25.0755
lfingers 7.12502
lthumb -8.81197 4.72054
rfemur -41.9926 5.93487 8.31878
rtibia 36.3456
rfoot -12.4577 -12.1283
rtoes -27.7852
lfemur -13.1201 -8.2818 -16.421
ltibia 45.6233
lfoot -15.2347 5.92844
ltoes -67.9748
157
root 10.4815 16.5495 11.941 -166.808 -1.68547 176.356
lowerback 3.06345 -3.31349 -6.09422
upperback 2.45629 -4.71355 3.07253
thorax 1.58176 -2.55798 6.66498
lowerneck -9.19281 -0.148062 -2.56128
upperneck 26.2765 1.91603 0.484559
head 9.80486 1.29609 0.923556
rclavicle -1.53064e-014 5.96354e-014
rhumerus -55.6762 -19.5376 -55.4896
rradius 26.5063
rwrist 17.5516
rhand -16.5561 -35.3655
rfingers 7.12502
rthumb 9.66369 -65.1238
lclavicle -1.53064e-014 5.96354e-014
lhumerus -8.28198 -11.9816 83.9442
lradius 38.0827
lwrist -17.1519
lhand -35.7893 -24.4712
lfingers 7.12502
lthumb -8.90644 5.32082
rfemur -41.2088 6.02852 8.91813
rtibia 37.5716
rfoot -14.1586 -11.2868
rtoes -28.5477
lfemur -13.0782 -9.01494 -16.7176
ltibia 46.9137
lfoot -23.4447 6.88795
ltoes -72.221
158
root 10.5386 16.5605 11.6529 -166.913 -1.50657 176.323
lowerback 2.47603 -3.42491 -5.80659
upperback 2.54783 -4.83604 3.20928
thorax 2.01302 -2.6365 6.59894
lowerneck -9.26733 0.0118028 -2.47347
upperneck 26.5084 2.25335 0.159621
head 9.90388 1.43243 0.837894
rclavicle -2.06736e-014 4.77083e-014
rhumerus -54.2386 -20.0121 -55.3571
rradius 25.4964
rwrist 19.9683
rhand -16.5738 -35.0849
rfingers 7.12502
rthumb 9.64657 -64.844
lclavicle -2.06736e-014 4.77083e-014
lhumerus -9.20695 -11.794 85.0065
lradius 37.022
lwrist -18.2268
lhand -35.5735 -24.0368
lfingers 7.12502
lthumb -8.69828 5.76399
rfemur -40.2626 5.9554 9.49857
rtibia 38.2814
rfoot -15.3967 -10.725
rtoes -30.5374
lfemur -13.1019 -9.57008 -17.0597
ltibia 47.6476
lfoot -24.3283 7.83143
ltoes -71.6739
